<svg version="1.1" xmlns="http://www.w3.org/2000/svg" viewBox="-8.132893831032934 -11.778900765033438 16.300002000000006 23.583919528455205" fill="none" stroke="black" stroke-width="0.6%" vector-effect="non-scaling-stroke">
    <path d="M -5.04296 -9.00519 A 7.15 5.46724 360 0 1 -1.87612 -10.41461" />
    <path d="M 1.91033 -10.41461 A 7.15 5.46724 360 0 1 7.16711 -5.14252 A 7.15 5.46724 360 0 1 -7.13289 -5.14252 A 7.15 5.46724 360 0 1 -5.04296 -9.00519" />
    <path d="M -7.13289 4.84641 A 7.15 5.46724 180 0 0 7.16711 4.84641" />
    <path d="M 4.01711 -5.14252 A 4 3.0586 360 0 1 -3.98289 -5.14252" />
    <path d="M -2.90261 9.83704 A 4 3.0586 180 0 0 2.93682 9.83704" />
    <path d="M -2.8137 -9.88124 A 4 3.0586 360 0 1 4.01711 -7.7203 L 4.01711 -5.14252" />
    <path d="M 4.01711 -7.7203 A 4 3.0586 360 0 1 -3.98289 -7.7203 L -3.98289 -5.14252" />
    <path d="M -3.98289 -7.7203 A 4 3.0586 360 0 1 -2.8137 -9.88124" />
    <path d="M -7.13289 -5.14252 L -7.13289 4.84641" />
    <path d="M 7.16711 -5.14252 L 7.16711 4.84641" />
</svg>