<svg version="1.1" xmlns="http://www.w3.org/2000/svg" viewBox="-8.500001000000001 -11.951646236671783 17.000002000000002 23.90329247334357" fill="none" stroke="black" stroke-width="0.6%" vector-effect="non-scaling-stroke">
    <path d="M -5.3033 -9.27461 A 7.5 5.61373 360 0 1 -0.85774 -10.882" />
    <path d="M 0.85774 -10.882 A 7.5 5.61373 360 0 1 7.5 -5.3051 A 7.5 5.61373 360 0 1 -7.5 -5.3051 A 7.5 5.61373 360 0 1 -5.3033 -9.27461" />
    <path d="M -7.5 4.97354 A 7.5 5.61373 180 0 0 7.5 4.97354" />
    <path d="M 4 -5.3051 A 4 2.99399 360 0 1 -4 -5.3051" />
    <path d="M -2.58267 10.24392 A 4 2.99399 180 0 0 2.58267 10.24392" />
    <path d="M -2.82843 -10.07473 A 4 2.99399 360 0 1 4 -7.95766 L 4 -5.3051" />
    <path d="M 4 -7.95766 A 4 2.99399 360 0 1 -4 -7.95766 L -4 -5.3051" />
    <path d="M -4 -7.95766 A 4 2.99399 360 0 1 -2.82843 -10.07473" />
    <path d="M -7.5 -5.3051 L -7.5 4.97354" />
    <path d="M 7.5 -5.3051 L 7.5 4.97354" />
</svg>