<svg version="1.1" xmlns="http://www.w3.org/2000/svg" viewBox="-7.98325272268959 -11.709948373660287 16.000002000000002 23.445689279430837" fill="none" stroke="black" stroke-width="0.6%" vector-effect="non-scaling-stroke">
    <path d="M -4.93716 -8.8934 A 7 5.39911 360 0 1 -2.17134 -10.20743" />
    <path d="M 2.20483 -10.20743 A 7 5.39911 360 0 1 7.01675 -5.07886 A 7 5.39911 360 0 1 -6.98325 -5.07886 A 7 5.39911 360 0 1 -4.93716 -8.8934" />
    <path d="M -6.98325 4.78642 A 7 5.39911 180 0 0 7.01675 4.78642" />
    <path d="M 4.01675 -5.07886 A 4 3.08521 360 0 1 -3.98325 -5.07886" />
    <path d="M -3.03427 9.6457 A 4 3.08521 180 0 0 3.06777 9.6457" />
    <path d="M -2.81406 -9.80448 A 4 3.08521 360 0 1 4.01675 -7.62474 L 4.01675 -5.07886" />
    <path d="M 4.01675 -7.62474 A 4 3.08521 360 0 1 -3.98325 -7.62474 L -3.98325 -5.07886" />
    <path d="M -3.98325 -7.62474 A 4 3.08521 360 0 1 -2.81406 -9.80448" />
    <path d="M -6.98325 -5.07886 L -6.98325 4.78642" />
    <path d="M 7.01675 -5.07886 L 7.01675 4.78642" />
</svg>