<svg version="1.1" xmlns="http://www.w3.org/2000/svg" viewBox="-7.9832527226895875 -11.611817481260923 16.000002000000002 23.244674871492407" fill="none" stroke="black" stroke-width="0.6%" vector-effect="non-scaling-stroke">
    <path d="M -4.93716 -9.31922 A 7 4.40425 360 0 1 7.01675 -6.20756 A 7 4.40425 360 0 1 -6.98325 -6.20756 A 7 4.40425 360 0 1 -4.93716 -9.31922 Z" />
    <path d="M -6.98325 6.2286 A 7 4.40425 180 0 0 7.01675 6.2286" />
    <path d="M -2.81406 -7.98565 A 4 2.51672 360 0 1 4.01675 -6.20756 A 4 2.51672 360 0 1 -3.98325 -6.20756 A 4 2.51672 360 0 1 -2.81406 -7.98565 Z" />
    <path d="M -6.98325 -6.20756 L -6.98325 6.2286" />
    <path d="M 7.01675 -6.20756 L 7.01675 6.2286" />
</svg>