<svg version="1.1" xmlns="http://www.w3.org/2000/svg" viewBox="-7.9832527226895875 -11.407785284325643 16.000002000000002 22.836208239611906" fill="none" stroke="black" stroke-width="0.6%" vector-effect="non-scaling-stroke">
    <path d="M -4.93716 -9.1399 A 7 4.32005 360 0 1 7.01675 -6.08773 A 7 4.32005 360 0 1 -6.98325 -6.08773 A 7 4.32005 360 0 1 -4.93716 -9.1399 Z" />
    <path d="M -6.98325 6.10837 A 7 4.32005 180 1 0 7.01675 6.10837" />
    <path d="M -2.92021 -7.89723 A 4.15 2.56117 360 0 1 4.16675 -6.08773 A 4.15 2.56117 360 0 1 -4.13325 -6.08773 A 4.15 2.56117 360 0 1 -2.92021 -7.89723 Z" />
    <path d="M -6.98325 -6.08773 L -6.98325 6.10837" />
    <path d="M 7.01675 -6.08773 L 7.01675 6.10837" />
</svg>