<svg version="1.1" xmlns="http://www.w3.org/2000/svg" viewBox="-8.232654569928496 -11.823569966621625 16.500002000000002 23.673470282577448" fill="none" stroke="black" stroke-width="0.6%" vector-effect="non-scaling-stroke">
    <path d="M -5.11349 -9.07811 A 7.25 5.51169 0 0 1 -1.64286 -10.54927" />
    <path d="M 1.67756 -10.54927 A 7.25 5.51169 0 0 1 7.26735 -5.18404 A 7.25 5.51169 0 0 1 -7.23265 -5.18404 A 7.25 5.51169 0 0 1 -5.11349 -9.07811" />
    <path d="M -7.23265 4.88554 A 7.25 5.51169 180 0 0 7.26735 4.88554" />
    <path d="M 4.01735 -5.18404 A 4 3.04093 0 0 1 -3.98265 -5.18404" />
    <path d="M -2.8082 9.96142 A 4 3.04093 180 0 0 2.8429 9.96142" />
    <path d="M -2.81346 -9.93109 A 4 3.04093 0 0 1 4.01735 -7.78264 L 4.01735 -5.18404" />
    <path d="M 4.01735 -7.78264 A 4 3.04093 0 0 1 -3.98265 -7.78264 L -3.98265 -5.18404" />
    <path d="M -3.98265 -7.78264 A 4 3.04093 0 0 1 -2.81346 -9.93109" />
    <path d="M -7.23265 -5.18404 L -7.23265 4.88554" />
    <path d="M 7.26735 -5.18404 L 7.26735 4.88554" />
</svg>